%TF.GenerationSoftware,KiCad,Pcbnew,5.1.9+dfsg1-1*%
%TF.CreationDate,2022-05-15T20:14:44+02:00*%
%TF.ProjectId,water.tank,77617465-722e-4746-916e-6b2e6b696361,rev?*%
%TF.SameCoordinates,Original*%
%TF.FileFunction,Copper,L2,Bot*%
%TF.FilePolarity,Positive*%
%FSLAX46Y46*%
G04 Gerber Fmt 4.6, Leading zero omitted, Abs format (unit mm)*
G04 Created by KiCad (PCBNEW 5.1.9+dfsg1-1) date 2022-05-15 20:14:44*
%MOMM*%
%LPD*%
G01*
G04 APERTURE LIST*
%TA.AperFunction,ComponentPad*%
%ADD10O,1.700000X1.700000*%
%TD*%
%TA.AperFunction,ComponentPad*%
%ADD11R,1.700000X1.700000*%
%TD*%
%TA.AperFunction,ComponentPad*%
%ADD12C,1.600000*%
%TD*%
%TA.AperFunction,ComponentPad*%
%ADD13O,1.905000X2.000000*%
%TD*%
%TA.AperFunction,ComponentPad*%
%ADD14R,1.905000X2.000000*%
%TD*%
%TA.AperFunction,ComponentPad*%
%ADD15O,1.700000X1.950000*%
%TD*%
%TA.AperFunction,ComponentPad*%
%ADD16O,1.700000X2.000000*%
%TD*%
%TA.AperFunction,Conductor*%
%ADD17C,1.000000*%
%TD*%
G04 APERTURE END LIST*
D10*
%TO.P,SENSOR1,4*%
%TO.N,VCC*%
X69215000Y-60325000D03*
%TO.P,SENSOR1,3*%
%TO.N,IO14*%
X69215000Y-62865000D03*
%TO.P,SENSOR1,2*%
%TO.N,IO12*%
X69215000Y-65405000D03*
D11*
%TO.P,SENSOR1,1*%
%TO.N,GND*%
X69215000Y-67945000D03*
%TD*%
D12*
%TO.P,100nf1,2*%
%TO.N,GND*%
X88860000Y-73660000D03*
%TO.P,100nf1,1*%
%TO.N,VCC*%
X86360000Y-73660000D03*
%TD*%
D13*
%TO.P,U1,3*%
%TO.N,5V*%
X109220000Y-76200000D03*
%TO.P,U1,2*%
%TO.N,VCC*%
X106680000Y-76200000D03*
D14*
%TO.P,U1,1*%
%TO.N,GND*%
X104140000Y-76200000D03*
%TD*%
D15*
%TO.P,OLED1,4*%
%TO.N,IO04*%
X77350000Y-79375000D03*
%TO.P,OLED1,3*%
%TO.N,IO05*%
X74850000Y-79375000D03*
%TO.P,OLED1,2*%
%TO.N,GND*%
X72350000Y-79375000D03*
%TO.P,OLED1,1*%
%TO.N,VCC*%
%TA.AperFunction,ComponentPad*%
G36*
G01*
X69000000Y-80100000D02*
X69000000Y-78650000D01*
G75*
G02*
X69250000Y-78400000I250000J0D01*
G01*
X70450000Y-78400000D01*
G75*
G02*
X70700000Y-78650000I0J-250000D01*
G01*
X70700000Y-80100000D01*
G75*
G02*
X70450000Y-80350000I-250000J0D01*
G01*
X69250000Y-80350000D01*
G75*
G02*
X69000000Y-80100000I0J250000D01*
G01*
G37*
%TD.AperFunction*%
%TD*%
D16*
%TO.P,J5,2*%
%TO.N,GND*%
X97115000Y-79375000D03*
%TO.P,J5,1*%
%TO.N,5V*%
%TA.AperFunction,ComponentPad*%
G36*
G01*
X93765000Y-80125000D02*
X93765000Y-78625000D01*
G75*
G02*
X94015000Y-78375000I250000J0D01*
G01*
X95215000Y-78375000D01*
G75*
G02*
X95465000Y-78625000I0J-250000D01*
G01*
X95465000Y-80125000D01*
G75*
G02*
X95215000Y-80375000I-250000J0D01*
G01*
X94015000Y-80375000D01*
G75*
G02*
X93765000Y-80125000I0J250000D01*
G01*
G37*
%TD.AperFunction*%
%TD*%
D10*
%TO.P,J1,8*%
%TO.N,VCC*%
X76835000Y-73025000D03*
%TO.P,J1,7*%
%TO.N,N/C*%
X76835000Y-70485000D03*
%TO.P,J1,6*%
%TO.N,IO12*%
X76835000Y-67945000D03*
%TO.P,J1,5*%
%TO.N,IO14*%
X76835000Y-65405000D03*
%TO.P,J1,4*%
%TO.N,N/C*%
X76835000Y-62865000D03*
%TO.P,J1,3*%
X76835000Y-60325000D03*
%TO.P,J1,2*%
X76835000Y-57785000D03*
D11*
%TO.P,J1,1*%
X76835000Y-55245000D03*
%TD*%
D10*
%TO.P,ESP8266,8*%
%TO.N,N/C*%
X97155000Y-55245000D03*
%TO.P,ESP8266,7*%
X97155000Y-57785000D03*
%TO.P,ESP8266,6*%
%TO.N,IO05*%
X97155000Y-60325000D03*
%TO.P,ESP8266,5*%
%TO.N,IO04*%
X97155000Y-62865000D03*
%TO.P,ESP8266,4*%
%TO.N,N/C*%
X97155000Y-65405000D03*
%TO.P,ESP8266,3*%
X97155000Y-67945000D03*
%TO.P,ESP8266,2*%
X97155000Y-70485000D03*
D11*
%TO.P,ESP8266,1*%
%TO.N,GND*%
X97155000Y-73025000D03*
%TD*%
D17*
%TO.N,VCC*%
X76200000Y-73025000D02*
X69850000Y-79375000D01*
X76835000Y-73025000D02*
X76200000Y-73025000D01*
X105652501Y-74499999D02*
X106680000Y-75527498D01*
X106680000Y-75527498D02*
X106680000Y-76200000D01*
X102627499Y-74499999D02*
X105652501Y-74499999D01*
X101967497Y-75160001D02*
X102627499Y-74499999D01*
X87860001Y-75160001D02*
X101967497Y-75160001D01*
X86360000Y-73660000D02*
X87860001Y-75160001D01*
%TO.N,IO12*%
X74295000Y-65405000D02*
X76835000Y-67945000D01*
X69215000Y-65405000D02*
X74295000Y-65405000D01*
%TO.N,IO14*%
X74295000Y-62865000D02*
X76835000Y-65405000D01*
X69215000Y-62865000D02*
X74295000Y-62865000D01*
%TO.N,IO04*%
X77350000Y-79375000D02*
X77350000Y-78860000D01*
X93345000Y-62865000D02*
X97155000Y-62865000D01*
X77350000Y-78860000D02*
X93345000Y-62865000D01*
%TO.N,5V*%
X94615000Y-79375000D02*
X94615000Y-81280000D01*
X94615000Y-81280000D02*
X95250000Y-81915000D01*
X95250000Y-81915000D02*
X107315000Y-81915000D01*
X109220000Y-80010000D02*
X109220000Y-76200000D01*
X107315000Y-81915000D02*
X109220000Y-80010000D01*
%TO.N,IO05*%
X93900000Y-60325000D02*
X97155000Y-60325000D01*
X74850000Y-79375000D02*
X93900000Y-60325000D01*
%TD*%
M02*
