%TF.GenerationSoftware,KiCad,Pcbnew,5.1.9+dfsg1-1*%
%TF.CreationDate,2022-05-15T20:14:44+02:00*%
%TF.ProjectId,water.tank,77617465-722e-4746-916e-6b2e6b696361,rev?*%
%TF.SameCoordinates,Original*%
%TF.FileFunction,Soldermask,Bot*%
%TF.FilePolarity,Negative*%
%FSLAX46Y46*%
G04 Gerber Fmt 4.6, Leading zero omitted, Abs format (unit mm)*
G04 Created by KiCad (PCBNEW 5.1.9+dfsg1-1) date 2022-05-15 20:14:44*
%MOMM*%
%LPD*%
G01*
G04 APERTURE LIST*
%ADD10O,1.700000X1.700000*%
%ADD11R,1.700000X1.700000*%
%ADD12C,1.600000*%
%ADD13O,1.905000X2.000000*%
%ADD14R,1.905000X2.000000*%
%ADD15O,1.700000X1.950000*%
%ADD16O,1.700000X2.000000*%
G04 APERTURE END LIST*
D10*
%TO.C,SENSOR1*%
X69215000Y-60325000D03*
X69215000Y-62865000D03*
X69215000Y-65405000D03*
D11*
X69215000Y-67945000D03*
%TD*%
D12*
%TO.C,100nf1*%
X88860000Y-73660000D03*
X86360000Y-73660000D03*
%TD*%
D13*
%TO.C,U1*%
X109220000Y-76200000D03*
X106680000Y-76200000D03*
D14*
X104140000Y-76200000D03*
%TD*%
D15*
%TO.C,OLED1*%
X77350000Y-79375000D03*
X74850000Y-79375000D03*
X72350000Y-79375000D03*
G36*
G01*
X69000000Y-80100000D02*
X69000000Y-78650000D01*
G75*
G02*
X69250000Y-78400000I250000J0D01*
G01*
X70450000Y-78400000D01*
G75*
G02*
X70700000Y-78650000I0J-250000D01*
G01*
X70700000Y-80100000D01*
G75*
G02*
X70450000Y-80350000I-250000J0D01*
G01*
X69250000Y-80350000D01*
G75*
G02*
X69000000Y-80100000I0J250000D01*
G01*
G37*
%TD*%
D16*
%TO.C,J5*%
X97115000Y-79375000D03*
G36*
G01*
X93765000Y-80125000D02*
X93765000Y-78625000D01*
G75*
G02*
X94015000Y-78375000I250000J0D01*
G01*
X95215000Y-78375000D01*
G75*
G02*
X95465000Y-78625000I0J-250000D01*
G01*
X95465000Y-80125000D01*
G75*
G02*
X95215000Y-80375000I-250000J0D01*
G01*
X94015000Y-80375000D01*
G75*
G02*
X93765000Y-80125000I0J250000D01*
G01*
G37*
%TD*%
D10*
%TO.C,J1*%
X76835000Y-73025000D03*
X76835000Y-70485000D03*
X76835000Y-67945000D03*
X76835000Y-65405000D03*
X76835000Y-62865000D03*
X76835000Y-60325000D03*
X76835000Y-57785000D03*
D11*
X76835000Y-55245000D03*
%TD*%
D10*
%TO.C,ESP8266*%
X97155000Y-55245000D03*
X97155000Y-57785000D03*
X97155000Y-60325000D03*
X97155000Y-62865000D03*
X97155000Y-65405000D03*
X97155000Y-67945000D03*
X97155000Y-70485000D03*
D11*
X97155000Y-73025000D03*
%TD*%
M02*
