M48
; DRILL file {KiCad 5.1.9+dfsg1-1} date Tue May 17 23:05:57 2022
; FORMAT={-:-/ absolute / metric / decimal}
; #@! TF.CreationDate,2022-05-17T23:05:57+02:00
; #@! TF.GenerationSoftware,Kicad,Pcbnew,5.1.9+dfsg1-1
; #@! TF.FileFunction,Plated,1,2,PTH
FMAT,2
METRIC
T1C0.800
T2C0.950
T3C1.000
T4C1.100
T5C2.000
%
G90
G05
T1
X72.39Y-72.39
X72.39Y-74.89
T2
X80.01Y-78.74
X82.51Y-78.74
X85.01Y-78.74
X87.51Y-78.74
T3
X72.39Y-59.69
X72.39Y-62.23
X72.39Y-64.77
X72.39Y-67.31
X78.74Y-55.245
X78.74Y-57.785
X78.74Y-60.325
X78.74Y-62.865
X78.74Y-65.405
X78.74Y-67.945
X78.74Y-70.485
X78.74Y-73.025
X106.68Y-55.245
X106.68Y-57.785
X106.68Y-60.325
X106.68Y-62.865
X106.68Y-65.405
X106.68Y-67.945
X106.68Y-70.485
X106.68Y-73.025
X116.84Y-73.66
X119.34Y-73.66
T4
X114.3Y-67.31
X116.84Y-67.31
X119.38Y-67.31
T5
X66.04Y-50.8
X66.04Y-81.28
X121.92Y-50.8
X121.92Y-81.28
T0
M30
